<svg fill="#000000" viewBox="0 0 1000 1000" version="1.1" xmlns="http://www.w3.org/2000/svg" xmlns:xlink="http://www.w3.org/1999/xlink" enable-background="new 0 0 1000 1000" xml:space="preserve"><g id="SVGRepo_bgCarrier" stroke-width="0"></g><g id="SVGRepo_tracerCarrier" stroke-linecap="round" stroke-linejoin="round"></g><g id="SVGRepo_iconCarrier"> <metadata> Svg Vector Icons : http://www.onlinewebfonts.com/icon </metadata> <g> <g transform="translate(0.000000,511.000000) scale(0.100000,-0.100000)"> <path d="M1852.4,4979.1c-60.4-16.1-155-54.3-211.3-84.5c-130.8-68.4-350.2-285.8-418.6-418.6c-124.8-231.4-116.7,42.3-116.7-4365.3c0-4393.4-6-4125.8,112.7-4363.3c68.4-134.8,289.8-356.2,424.7-424.7c235.5-118.7,64.4-112.7,3357-112.7c3292.5,0,3121.5-6,3357,112.7c134.8,68.4,356.2,289.8,424.7,424.7c118.7,237.5,112.7-30.2,112.7,4363.3c0,4393.4,6,4125.8-112.7,4363.3c-68.4,134.8-289.8,356.2-424.7,424.7c-235.5,118.7-62.4,112.7-3367,110.7C2409.8,5009.3,1945,5005.2,1852.4,4979.1z M8127.6,4371.3c38.2-18.1,88.5-60.4,110.7-90.6c42.3-56.4,42.3-80.5,48.3-1203.5l4-1145.2H5000H1709.5l4,1145.2c6,1123,6,1147.2,48.3,1203.5c22.1,30.2,72.5,72.4,110.7,90.6c64.4,34.2,255.6,36.2,3127.5,36.2C7872,4407.5,8063.2,4405.5,8127.6,4371.3z M8290.6,120.7v-1207.5H5000H1709.5V120.7v1207.5H5000h3290.5V120.7z M8286.5-2845.8c-6-1133.1-6-1157.2-48.3-1213.6c-22.1-30.2-72.5-72.4-110.7-90.6c-64.4-34.2-255.6-36.2-3127.5-36.2c-2871.9,0-3063.1,2-3127.5,36.2c-38.2,18.1-88.6,60.4-110.7,90.6c-42.3,56.3-42.3,80.5-48.3,1213.6l-4,1155.2H5000h3290.5L8286.5-2845.8z"></path> <path d="M4607.6,3652.8v-392.5H5000h392.4v392.5v392.5H5000h-392.5V3652.8z"></path> <path d="M3923.3,2676.7v-301.9H5000h1076.7v301.9v301.9H5000H3923.3V2676.7z"></path> <path d="M4607.6,543.4V161H5000h392.4v382.4v382.4H5000h-392.5V543.4z"></path> <path d="M3923.3-442.8v-301.9H5000h1076.7v301.9v301.9H5000H3923.3V-442.8z"></path> <path d="M4607.6-2465.4v-392.5H5000h392.4v392.5v392.5H5000h-392.5V-2465.4z"></path> <path d="M3923.3-3441.5v-301.9H5000h1076.7v301.9v301.9H5000H3923.3V-3441.5z"></path> </g> </g> </g></svg>