<svg viewBox="0 0 24 24" fill="none" xmlns="http://www.w3.org/2000/svg">
<g id="SVGRepo_bgCarrier" stroke-width="0"></g>
<g id="SVGRepo_tracerCarrier" stroke-linecap="round" stroke-linejoin="round"></g>
<g id="SVGRepo_iconCarrier">
<path d="M12 8V12L14.5 14.5" stroke="currentColor" stroke-width="1.5" stroke-linecap="round" stroke-linejoin="round"></path>
<path d="M5.60423 5.60423L5.0739 5.0739V5.0739L5.60423 5.60423ZM4.33785 6.87061L3.58786 6.87438C3.58992 7.28564 3.92281 7.61853 4.33408 7.6206L4.33785 6.87061ZM6.87963 4.33783L7.6296 4.33406C7.62754 3.92279 7.29465 3.5899 6.88339 3.58784L6.87963 4.33783ZM5.07505 18.9249C9.74784 23.5977 17.2521 23.5977 21.9249 18.9249L20.5107 17.5107C16.6834 21.3381 10.3166 21.3381 6.48926 17.5107L5.07505 18.9249ZM21.9249 5.07505C17.2521 0.402271 9.74784 0.402271 5.07505 5.07505L6.48926 6.48926C10.3166 2.66191 16.6834 2.66191 20.5107 6.48926L21.9249 5.07505ZM5.0739 5.0739C3.42052 6.72728 2.38361 8.87667 2.12602 11.1239L3.87398 11.3761C4.08447 9.56023 4.90985 7.86682 6.13456 6.48926L5.0739 5.0739ZM5.08784 6.86684C5.12784 6.86684 5.16723 6.86544 5.20588 6.86267L5.07505 5.07505C4.74489 5.07505 4.42016 5.11902 4.10786 5.20437L5.08784 6.86684ZM5.20588 6.86267C6.21693 6.76644 7.23356 6.78693 8.23604 6.92328L8.52396 5.17672C7.35644 5.01307 6.16307 4.98644 4.97505 5.07505L5.20588 6.86267ZM3.58786 6.87438L3.58409 7.62437L5.33408 7.6206L5.33785 6.87061L3.58786 6.87438ZM3.58409 7.62437C3.49548 8.81239 3.52211 10.0058 3.68576 11.1733L5.43224 10.8854C5.29589 9.88293 5.27541 8.8663 5.37163 7.85525L3.58409 7.62437ZM6.87587 5.08782L6.12588 5.09159L6.13339 6.84158L6.88338 6.83781L6.87587 5.08782ZM6.12588 5.09159C5.11483 5.18782 4.09821 5.16729 3.09572 5.03094L2.80428 6.77751C3.97179 6.94115 5.16516 6.96779 6.35318 6.87918L6.12588 5.09159ZM7.6296 4.33406C7.6296 4.29541 7.63099 4.25602 7.63376 4.21737L5.84614 4.08654C5.75753 4.41669 5.8015 4.74143 5.88685 5.05373L7.6296 4.33406ZM7.63376 4.21737C7.72998 3.20632 7.7095 2.18969 7.57315 1.18721L5.82658 1.47563C5.96293 2.47811 5.98346 3.49474 5.88723 4.50579L7.63376 4.21737ZM6.88339 3.58784L6.1334 3.59161L6.1409 5.3416L6.89089 5.33783L6.88339 3.58784ZM6.1334 3.59161C4.94538 3.68022 3.75201 3.65358 2.58451 3.48994L2.29633 5.23651C3.48881 5.40285 4.70738 5.43090 5.89090 5.33783L6.1334 3.59161Z" fill="currentColor"></path>
<circle cx="12" cy="12" r="7.25" stroke="currentColor" stroke-width="1.5"></circle>
</g>
</svg>
