<svg viewBox="-57.96 0 512 512" xmlns="http://www.w3.org/2000/svg" fill="#000000"><g id="SVGRepo_bgCarrier" stroke-width="0"></g><g id="SVGRepo_tracerCarrier" stroke-linecap="round" stroke-linejoin="round"></g><g id="SVGRepo_iconCarrier"> <defs> <style>.cls-1{fill:none;stroke:#000000;stroke-linecap:round;stroke-linejoin:round;stroke-width:20px;}</style> </defs> <g data-name="Layer 2" id="Layer_2"> <g data-name="E443, Envelope, mail, post" id="E443_Envelope_mail_post"> <rect class="cls-1" height="492" rx="50.2" width="376.09" x="10" y="10"></rect> <path class="cls-1" d="M262.31,140.53h31.62a30.11,30.11,0,0,0,26-14.94L375.1,28.86"></path> <path class="cls-1" d="M21.87,27.8l64.74,99.32a30.17,30.17,0,0,0,25.08,13.41h22.1"></path> <path class="cls-1" d="M133.79,140.53c0-8.17,9.35-14.42,12.29-21.52,3.06-7.36,1-18.37,6.53-23.92s16.55-3.47,23.92-6.52c7.1-2.95,13.35-12.3,21.52-12.3s14.42,9.35,21.52,12.3c7.36,3.05,18.37,1,23.92,6.52S247,111.65,250,119c3,7.1,12.3,13.35,12.3,21.52S253,155,250,162.05c-3,7.37-1,18.37-6.52,23.92s-16.56,3.47-23.92,6.52c-7.1,2.95-13.35,12.3-21.52,12.3s-14.42-9.35-21.53-12.3c-7.36-3.05-18.36-1-23.91-6.52s-3.47-16.55-6.53-23.92C143.14,155,133.79,148.7,133.79,140.53Z"></path> <line class="cls-1" x1="182.99" x2="213.11" y1="140.53" y2="140.53"></line> </g> </g> </g></svg>