<svg xmlns="http://www.w3.org/2000/svg" viewBox="0 0 24 24" fill="currentColor" 
  class="w-6 h-6" 
  stroke-width="1.5"
  stroke="currentColor"
  role="img"
  aria-label="Sobre confirmado">
  <path d="M1.5 8.67v8.58a3 3 0 003 3h15a3 3 0 003-3V8.67l-8.928 5.493a3 3 0 01-3.144 0L1.5 8.67z" />
  <path d="M22.5 6.908V6.75a3 3 0 00-3-3h-15a3 3 0 00-3 3v.158l9.714 5.978a1.5 1.5 0 001.572 0L22.5 6.908z" />
  <circle cx="18" cy="18" r="6" class="fill-green-500 stroke-white" />
  <path d="M15.75 18.75l1.5 1.5 3-3" stroke="white" stroke-width="1.5" stroke-linecap="round" stroke-linejoin="round" fill="none" />
</svg>